<svg xmlns="http://www.w3.org/2000/svg" xmlns:xlink="http://www.w3.org/1999/xlink" version="1.1" width="1080" height="1080" viewBox="0 0 1080 1080" xml:space="preserve">
<desc>Created with Fabric.js 5.2.4</desc>
<defs>
</defs>
<g transform="matrix(1 0 0 1 540 540)" id="e9fa076d-fc56-4657-8501-651b2451705f"  >
<rect style="stroke: none; stroke-width: 1; stroke-dasharray: none; stroke-linecap: butt; stroke-dashoffset: 0; stroke-linejoin: miter; stroke-miterlimit: 4; fill: rgb(255,255,255); fill-rule: nonzero; opacity: 1; visibility: hidden;" vector-effect="non-scaling-stroke"  x="-540" y="-540" rx="0" ry="0" width="1080" height="1080" />
</g>
<g transform="matrix(1 0 0 1 540 540)" id="93d7f63f-c499-480c-98da-e33b2c2ade83"  >
</g>
<g transform="matrix(1 0 0 1 540 540)" id="b6cf8c55-62ab-4216-8525-c26792d14ad8"  >
<path style="stroke: rgb(0,0,0); stroke-width: 0; stroke-dasharray: none; stroke-linecap: butt; stroke-dashoffset: 0; stroke-linejoin: miter; stroke-miterlimit: 4; fill: rgb(59,130,246); fill-rule: nonzero; opacity: 1;" vector-effect="non-scaling-stroke"  transform=" translate(-12, -12.37)" d="M 11.54 22.351 L 11.61 22.391 L 11.638 22.406999999999996 C 11.86356660186851 22.528974570295436 12.135433398131491 22.528974570295436 12.361 22.406999999999996 L 12.389000000000001 22.391999999999996 L 12.46 22.350999999999996 C 12.85111728350349 22.119088475502508 13.232758435668433 21.87155549044448 13.604000000000006 21.608999999999995 C 14.565073731244485 20.9304815275309 15.46303933651952 20.166725466689446 16.286999999999995 19.327 C 18.230999999999998 17.336999999999996 20.25 14.346999999999994 20.25 10.499999999999995 C 20.25 5.94365081389595 16.556349186104043 2.2499999999999947 12 2.2499999999999947 C 7.443650813895955 2.2499999999999947 3.75 5.943650813895949 3.75 10.499999999999993 C 3.75 14.345999999999995 5.77 17.336999999999996 7.713 19.326999999999995 C 8.536643680952585 20.166678600281113 9.434273022500644 20.930433319674353 10.394999999999989 21.608999999999988 C 10.76656845297752 21.871578205270488 11.1485435871445 22.11911143632018 11.539999999999997 22.350999999999992 z M 12 13.5 C 13.65685424949238 13.5 15 12.15685424949238 15 10.5 C 15 8.84314575050762 13.65685424949238 7.5 12 7.5 C 10.34314575050762 7.5 9 8.84314575050762 9 10.5 C 9 12.15685424949238 10.34314575050762 13.5 12 13.5 z" stroke-linecap="round" />
</g>
<g transform="matrix(NaN NaN NaN NaN 0 0)"  >
<g style=""   >
</g>
</g>
</svg>