<svg width="27" height="33" viewBox="0 0 27 33" fill="none" xmlns="http://www.w3.org/2000/svg">
<g clip-path="url(#clip0_1609_8573)">
<path fill-rule="evenodd" clip-rule="evenodd" d="M13.5 31.5C13.5 31.5 25.5 22.5 25.5 13.5C25.5 10.3174 24.2357 7.26516 21.9853 5.01472C19.7348 2.76428 16.6826 1.5 13.5 1.5C10.3174 1.5 7.26516 2.76428 5.01472 5.01472C2.76428 7.26516 1.5 10.3174 1.5 13.5C1.5 22.5 13.5 31.5 13.5 31.5ZM18 13.5C18 15.9853 15.9853 18 13.5 18C11.0147 18 9 15.9853 9 13.5C9 11.0147 11.0147 9 13.5 9C15.9853 9 18 11.0147 18 13.5Z" fill="#374151"/>
<path d="M13.5 31.5L12.9 32.3C13.2556 32.5667 13.7444 32.5667 14.1 32.3L13.5 31.5ZM21.9853 5.01472L22.6924 4.30761L22.6924 4.30761L21.9853 5.01472ZM24.5 13.5C24.5 17.605 21.7295 21.8616 18.7526 25.2106C17.2876 26.8588 15.8195 28.2355 14.7165 29.2005C14.1657 29.6825 13.7078 30.0602 13.3892 30.3162C13.23 30.4442 13.1057 30.5416 13.0222 30.6063C12.9804 30.6387 12.9489 30.6628 12.9283 30.6785C12.918 30.6864 12.9104 30.6921 12.9057 30.6957C12.9033 30.6975 12.9016 30.6988 12.9007 30.6995C12.9002 30.6998 12.8999 30.7001 12.8998 30.7002C12.8997 30.7002 12.8998 30.7002 12.8998 30.7002C12.8999 30.7001 12.9 30.7 13.5 31.5C14.1 32.3 14.1002 32.2998 14.1005 32.2996C14.1007 32.2995 14.101 32.2993 14.1013 32.299C14.1019 32.2986 14.1027 32.298 14.1037 32.2972C14.1057 32.2957 14.1083 32.2937 14.1117 32.2912C14.1185 32.286 14.1282 32.2787 14.1406 32.2693C14.1654 32.2504 14.2012 32.2229 14.2473 32.1871C14.3396 32.1156 14.4731 32.0109 14.642 31.8752C14.9797 31.6039 15.4593 31.2082 16.0335 30.7057C17.1805 29.702 18.7124 28.2662 20.2474 26.5394C23.2705 23.1384 26.5 18.395 26.5 13.5H24.5ZM21.2782 5.72183C23.3411 7.78473 24.5 10.5826 24.5 13.5H26.5C26.5 10.0522 25.1304 6.74559 22.6924 4.30761L21.2782 5.72183ZM13.5 2.5C16.4174 2.5 19.2153 3.65893 21.2782 5.72183L22.6924 4.30761C20.2544 1.86964 16.9478 0.5 13.5 0.5V2.5ZM5.72183 5.72183C7.78473 3.65893 10.5826 2.5 13.5 2.5V0.5C10.0522 0.5 6.74558 1.86964 4.30761 4.30761L5.72183 5.72183ZM2.5 13.5C2.5 10.5826 3.65893 7.78473 5.72183 5.72183L4.30761 4.30761C1.86964 6.74558 0.5 10.0522 0.5 13.5H2.5ZM13.5 31.5C14.1 30.7 14.1001 30.7001 14.1002 30.7002C14.1002 30.7002 14.1003 30.7002 14.1002 30.7002C14.1001 30.7001 14.0998 30.6998 14.0993 30.6995C14.0984 30.6988 14.0967 30.6975 14.0943 30.6957C14.0896 30.6921 14.082 30.6864 14.0717 30.6785C14.0511 30.6628 14.0196 30.6387 13.9778 30.6063C13.8943 30.5416 13.77 30.4442 13.6108 30.3162C13.2922 30.0602 12.8343 29.6825 12.2835 29.2005C11.1805 28.2355 9.71242 26.8588 8.24741 25.2106C5.27047 21.8616 2.5 17.605 2.5 13.5H0.5C0.5 18.395 3.72953 23.1384 6.75259 26.5394C8.28758 28.2662 9.81946 29.702 10.9665 30.7057C11.5407 31.2082 12.0203 31.6039 12.358 31.8752C12.5269 32.0109 12.6604 32.1156 12.7527 32.1871C12.7988 32.2229 12.8346 32.2504 12.8594 32.2693C12.8718 32.2787 12.8815 32.286 12.8883 32.2912C12.8917 32.2937 12.8943 32.2957 12.8963 32.2972C12.8973 32.298 12.8981 32.2986 12.8987 32.299C12.899 32.2993 12.8993 32.2995 12.8995 32.2996C12.8998 32.2998 12.9 32.3 13.5 31.5ZM13.5 19C16.5376 19 19 16.5376 19 13.5H17C17 15.433 15.433 17 13.5 17V19ZM8 13.5C8 16.5376 10.4624 19 13.5 19V17C11.567 17 10 15.433 10 13.5H8ZM13.5 8C10.4624 8 8 10.4624 8 13.5H10C10 11.567 11.567 10 13.5 10V8ZM19 13.5C19 10.4624 16.5376 8 13.5 8V10C15.433 10 17 11.567 17 13.5H19Z" fill="#374151"/>
</g>
<defs>
<clipPath id="clip0_1609_8573">
<rect width="27" height="33" fill="white"/>
</clipPath>
</defs>
</svg>
