<svg width="26" height="26" viewBox="0 0 26 26" fill="none" xmlns="http://www.w3.org/2000/svg">
<path fill-rule="evenodd" clip-rule="evenodd" d="M12.5014 24.2136C12.5341 24.2326 12.5598 24.2472 12.578 24.2575L12.6083 24.2743C12.8497 24.4069 13.1492 24.4059 13.3909 24.2748L13.422 24.2575C13.4402 24.2472 13.4659 24.2326 13.4986 24.2136C13.564 24.1757 13.6576 24.1204 13.7751 24.048C14.0102 23.9033 14.342 23.6899 14.7383 23.4099C15.5297 22.8508 16.5856 22.0214 17.6438 20.938C19.7499 18.7816 21.9375 15.5417 21.9375 11.375C21.9375 6.43895 17.936 2.4375 13 2.4375C8.06395 2.4375 4.0625 6.43895 4.0625 11.375C4.0625 15.5417 6.2501 18.7816 8.35624 20.938C9.41444 22.0214 10.4703 22.8508 11.2617 23.4099C11.658 23.6899 11.9898 23.9033 12.2249 24.048C12.3424 24.1204 12.436 24.1757 12.5014 24.2136ZM13 14.625C14.7949 14.625 16.25 13.1699 16.25 11.375C16.25 9.58008 14.7949 8.125 13 8.125C11.2051 8.125 9.75 9.58008 9.75 11.375C9.75 13.1699 11.2051 14.625 13 14.625Z" fill="#3B82F6"/>
</svg>
